<svg width="73" height="72" viewBox="0 0 73 72" fill="none" xmlns="http://www.w3.org/2000/svg">
<path fill-rule="evenodd" clip-rule="evenodd" d="M36.5 72C56.3823 72 72.5 55.8823 72.5 36C72.5 16.1177 56.3823 0 36.5 0C16.6177 0 0.5 16.1177 0.5 36C0.5 55.8823 16.6177 72 36.5 72ZM36.5 67.519C19.0926 67.519 4.98105 53.4074 4.98105 36C4.98105 18.5926 19.0926 4.48105 36.5 4.48105C53.9074 4.48105 68.019 18.5926 68.019 36C68.019 53.4074 53.9074 67.519 36.5 67.519ZM36.4987 63.6663C51.7786 63.6663 64.1654 51.2796 64.1654 35.9997C64.1654 20.7198 51.7786 8.33301 36.4987 8.33301C21.2188 8.33301 8.83203 20.7198 8.83203 35.9997C8.83203 51.2796 21.2188 63.6663 36.4987 63.6663Z" fill="white"/>
</svg>
